<?xml version="1.0" standalone="no"?>
<!DOCTYPE svg PUBLIC "-//W3C//DTD SVG 20010904//EN"
 "http://www.w3.org/TR/2001/REC-SVG-20010904/DTD/svg10.dtd">
<svg version="1.0" xmlns="http://www.w3.org/2000/svg"
 width="417.000000pt" height="411.000000pt" viewBox="0 0 417.000000 411.000000"
 preserveAspectRatio="xMidYMid meet">

<g transform="translate(0.000000,411.000000) scale(0.100000,-0.100000)"
fill="#000000" stroke="none">
<path d="M660 3976 c0 -79 -4 -137 -10 -141 -5 -3 -10 -15 -10 -26 0 -29 -44
-69 -77 -69 -44 0 -71 25 -76 68 l-4 37 -1 -36 c-3 -50 -24 -66 -65 -51 -21 8
-35 8 -41 2 -15 -15 -47 -12 -67 6 -16 14 -20 14 -42 -1 -21 -13 -32 -14 -65
-5 -22 5 -43 17 -46 26 -5 14 -8 14 -28 0 -15 -11 -25 -12 -34 -5 -10 8 -19 6
-36 -5 -12 -9 -30 -16 -40 -16 -15 0 -18 -9 -18 -48 l0 -47 47 1 c27 1 60 7
75 14 36 17 72 6 86 -25 11 -24 14 -25 28 -11 21 21 41 20 56 -3 11 -17 14
-18 34 -4 31 20 66 13 80 -15 7 -15 14 -20 18 -13 12 18 45 12 57 -10 l11 -21
14 21 c16 23 53 28 71 10 8 -8 17 -7 34 5 13 8 55 20 94 26 71 11 96 20 57 20
-15 0 -20 5 -16 15 4 8 17 15 29 15 13 0 27 5 30 10 3 6 14 10 23 10 16 -1 16
-1 0 -13 -11 -9 -14 -18 -8 -27 7 -12 28 -12 127 -2 111 12 246 11 688 -3 315
-10 441 -17 470 -25 17 -5 60 -9 96 -8 36 0 89 -5 117 -12 29 -6 59 -10 66 -7
21 8 332 -12 362 -23 15 -6 72 -15 128 -21 63 -6 107 -16 117 -25 13 -12 47
-16 132 -18 104 -3 118 -6 152 -29 21 -14 42 -24 47 -21 5 3 6 -6 2 -20 -5
-21 -1 -31 20 -47 14 -11 26 -27 26 -34 0 -8 9 -19 20 -25 11 -6 20 -19 20
-29 0 -11 15 -28 35 -40 19 -11 35 -25 35 -31 0 -5 5 -10 10 -10 6 0 35 -25
65 -55 51 -52 57 -55 103 -55 40 0 53 5 76 29 15 16 24 31 19 34 -5 3 -8 45
-6 92 2 67 7 93 23 115 11 15 20 31 20 36 0 4 17 22 37 40 30 27 34 35 25 47
-9 10 -25 13 -57 9 -34 -3 -50 0 -64 12 -12 11 -21 13 -25 7 -4 -6 -20 -5 -46
4 -24 9 -42 10 -45 4 -4 -5 -11 -7 -16 -4 -25 16 -109 31 -124 23 -12 -7 -24
-1 -49 26 -18 20 -41 36 -50 36 -16 0 -16 -2 -6 -15 11 -13 15 -13 21 -3 6 9
9 6 9 -10 0 -30 -24 -38 -74 -23 -23 7 -58 12 -79 12 -20 -1 -46 3 -57 9 -14
7 -25 7 -39 -1 -14 -10 -38 -10 -103 -1 -47 7 -159 17 -249 23 -90 5 -204 14
-254 19 -82 9 -701 42 -1020 54 -506 20 -691 30 -700 37 -6 4 -30 3 -53 -3
-31 -8 -50 -8 -68 0 -27 13 -32 43 -9 62 12 10 12 15 -2 37 -20 31 -32 226
-14 237 16 10 13 36 -4 36 -13 0 -15 -22 -15 -134z m2772 -496 c19 0 24 -15 9
-24 -4 -3 -6 -16 -4 -28 2 -13 -3 -32 -11 -43 -16 -20 -16 -20 -37 5 -16 19
-19 32 -14 59 9 46 15 55 28 42 6 -6 19 -11 29 -11z m63 -17 c14 -34 16 -78 4
-120 -13 -49 -29 -56 -30 -15 -2 42 -6 106 -9 117 -8 35 22 50 35 18z"/>
<path d="M481 4031 c-1 -40 2 -52 10 -44 7 7 8 24 1 54 l-10 44 -1 -54z"/>
<path d="M1160 4045 c7 -8 16 -15 21 -15 5 0 9 7 9 15 0 9 -9 15 -21 15 -18 0
-19 -2 -9 -15z"/>
<path d="M288 3955 c2 -26 8 -45 14 -43 11 4 11 6 2 53 -9 50 -20 43 -16 -10z"/>
<path d="M995 3970 c3 -5 13 -10 21 -10 8 0 14 5 14 10 0 6 -9 10 -21 10 -11
0 -17 -4 -14 -10z"/>
<path d="M73 3943 c-9 -3 -9 -11 3 -29 9 -13 18 -39 19 -57 4 -46 4 -47 13
-47 4 0 13 4 20 9 10 6 9 16 -9 45 -13 22 -19 46 -17 61 5 24 -3 29 -29 18z"/>
<path d="M836 3872 c3 -16 1 -39 -5 -51 -10 -17 -9 -22 4 -28 9 -3 24 2 33 11
9 9 11 16 5 16 -6 0 -14 16 -17 35 -4 19 -11 37 -16 40 -6 4 -7 -6 -4 -23z"/>
<path d="M3565 3639 c-4 -6 -5 -12 -2 -15 2 -3 7 2 10 11 7 17 1 20 -8 4z"/>
<path d="M3695 3630 c3 -5 8 -10 11 -10 2 0 4 5 4 10 0 6 -5 10 -11 10 -5 0
-7 -4 -4 -10z"/>
<path d="M285 3561 c4 -19 1 -41 -9 -59 -14 -26 -14 -31 -1 -36 8 -3 15 -15
15 -26 0 -11 5 -20 10 -20 7 0 9 13 5 33 -5 25 -1 39 15 60 17 22 19 27 6 27
-9 0 -18 11 -22 25 -9 36 -27 31 -19 -4z"/>
<path d="M4015 3491 c-6 -11 -1 -98 11 -182 5 -32 1 -41 -28 -68 -31 -30 -37
-32 -93 -29 l-60 3 0 -30 c0 -24 4 -30 20 -28 11 1 24 -5 28 -13 12 -21 37
-17 58 11 16 19 24 22 42 16 14 -5 30 -5 40 0 21 12 57 -5 57 -26 0 -11 12
-15 41 -15 l40 0 -3 43 c-2 28 -7 41 -16 39 -8 -1 -11 2 -7 7 3 6 -13 20 -35
33 -37 21 -54 48 -30 48 6 0 10 10 10 23 0 28 16 54 27 43 4 -4 13 -33 18 -63
6 -31 16 -58 23 -61 9 -3 12 25 12 116 l0 120 -27 6 c-77 15 -121 17 -128 7z"/>
<path d="M2120 3413 c-8 -4 -21 -13 -28 -22 -11 -14 -11 -14 -6 2 6 18 -20 25
-30 8 -3 -4 -32 -11 -64 -13 -32 -3 -67 -10 -78 -16 -10 -5 -37 -18 -58 -28
-62 -30 -166 -133 -175 -174 -13 -57 -1 -156 20 -179 11 -12 19 -35 19 -55 0
-21 6 -36 15 -40 10 -3 15 -19 15 -46 0 -22 5 -40 10 -40 6 0 10 14 10 30 0
17 9 40 20 52 l20 22 0 -30 c0 -39 34 -92 62 -98 66 -13 127 -14 145 -1 10 7
32 38 47 69 l28 56 47 -52 c44 -50 77 -106 66 -116 -2 -3 -26 -6 -52 -8 -109
-8 -133 -16 -126 -43 3 -14 -2 -20 -21 -23 -30 -6 -34 8 -11 38 8 10 15 28 15
38 0 17 -4 16 -32 -11 -18 -16 -41 -33 -50 -36 -10 -4 -18 -14 -18 -22 0 -10
-5 -13 -11 -9 -18 11 -1 -47 20 -71 32 -35 43 -63 32 -83 -8 -14 -5 -23 10
-36 26 -22 39 -13 39 29 0 19 4 36 10 40 5 3 40 8 77 11 37 3 90 13 116 21
l48 15 29 -34 c30 -34 31 -33 35 22 1 14 7 36 14 48 15 29 10 101 -6 95 -7 -3
-13 0 -13 6 0 6 -9 11 -20 11 -28 0 -80 28 -80 43 0 6 27 20 60 30 80 23 100
44 102 107 0 28 1 55 2 62 2 25 -103 39 -194 26 -54 -8 -80 -17 -80 -29 0 -14
-34 -11 -56 5 -18 14 -18 15 7 24 14 6 46 13 70 16 110 16 117 18 124 39 4 14
8 17 12 10 2 -7 16 -13 29 -13 14 0 34 -4 44 -10 25 -13 89 -96 68 -88 -15 6
-15 4 0 -32 9 -20 22 -36 28 -33 7 2 14 -4 17 -14 3 -12 5 -9 6 10 1 17 -4 27
-13 27 -21 0 -27 28 -12 53 17 28 27 152 16 202 -5 21 -18 50 -30 64 -11 14
-25 38 -31 52 -9 23 -45 49 -69 49 -5 0 -16 -7 -24 -16 -13 -13 -16 -13 -16
-1 0 17 -34 49 -43 41 -4 -4 1 -13 11 -20 15 -11 13 -13 -16 -12 -18 1 -31 6
-30 12 4 28 -37 84 -55 75 -1 0 -9 -3 -17 -6z m38 -29 c11 -22 10 -24 -5 -15
-11 6 -24 6 -36 -1 -15 -8 -18 -7 -11 4 12 20 28 37 35 38 3 0 11 -11 17 -26z
m-306 -405 c-12 -9 -19 -19 -15 -22 3 -3 -6 -9 -20 -12 -15 -4 -28 -16 -31
-31 -4 -13 -11 -24 -16 -24 -5 0 -2 21 7 46 10 30 18 42 23 33 6 -9 16 -3 36
21 18 21 30 28 32 20 3 -8 -5 -21 -16 -31z m381 -286 c-17 -6 -16 -18 3 -37
14 -15 11 -16 -38 -16 -29 0 -82 -5 -118 -10 -35 -5 -66 -7 -69 -4 -12 12 25
29 67 30 116 2 146 11 124 36 -19 23 7 43 28 22 11 -12 12 -18 3 -21z m-33
-98 c-5 -6 -25 -13 -42 -14 -83 -6 -112 -5 -115 5 -2 6 15 11 40 12 24 2 56 6
73 11 37 10 58 3 44 -14z"/>
<path d="M147 3379 c-9 -5 -22 -7 -27 -4 -6 3 -14 -5 -19 -18 -5 -13 -17 -27
-25 -30 -9 -4 -16 -14 -16 -22 0 -13 -6 -15 -30 -10 l-30 7 0 -85 c0 -81 1
-85 20 -80 12 3 28 -1 38 -10 15 -13 22 -14 57 -1 51 18 70 18 85 -1 8 -10 30
-15 61 -15 45 0 51 3 69 33 25 41 25 47 -1 47 -12 0 -53 10 -90 23 -48 15 -69
27 -69 39 0 9 -13 21 -30 27 -38 13 -38 23 5 65 45 45 46 60 2 35z m-67 -109
c0 -5 -9 -10 -20 -10 -11 0 -20 5 -20 10 0 6 9 10 20 10 11 0 20 -4 20 -10z"/>
<path d="M300 3365 c-7 -8 -21 -15 -31 -15 -11 0 -19 -6 -19 -14 0 -26 15 -25
47 4 18 16 29 32 24 34 -5 3 -14 -1 -21 -9z"/>
<path d="M3350 3090 c0 -5 17 -10 38 -9 30 0 33 2 17 9 -28 12 -55 12 -55 0z"/>
<path d="M1720 2823 c0 -22 2 -25 10 -13 13 20 13 40 0 40 -5 0 -10 -12 -10
-27z"/>
<path d="M2431 2834 c0 -11 3 -14 6 -6 3 7 2 16 -1 19 -3 4 -6 -2 -5 -13z"/>
<path d="M1756 2765 c4 -8 8 -15 10 -15 2 0 4 7 4 15 0 8 -4 15 -10 15 -5 0
-7 -7 -4 -15z"/>
<path d="M2122 2530 c-18 -4 -43 -6 -55 -3 -16 3 -18 2 -9 -5 7 -5 12 -15 10
-23 -2 -11 11 -14 63 -14 73 0 108 17 88 41 -12 15 -45 16 -97 4z"/>
<path d="M2292 2448 c-6 -6 -31 -11 -54 -9 -22 1 -77 -6 -120 -15 -57 -12 -85
-14 -101 -7 -12 6 -36 8 -53 6 -30 -5 -31 -7 -29 -45 2 -22 7 -43 12 -47 18
-13 36 -55 25 -59 -6 -2 -9 -9 -6 -17 3 -7 0 -16 -7 -21 -7 -4 -10 -3 -6 3 4
6 -4 18 -18 27 -14 9 -34 33 -45 54 -43 79 -10 -21 41 -122 27 -55 48 -100 46
-101 -1 -1 -33 -19 -72 -40 -109 -59 -112 -62 -77 -67 22 -3 29 -1 25 9 -4 9
0 11 11 7 9 -4 16 -1 16 6 0 7 7 10 16 6 8 -3 13 -2 9 3 -6 11 51 61 71 61 37
0 36 -79 -1 -110 -22 -18 -57 -88 -50 -100 3 -5 -11 -65 -31 -132 -20 -68 -49
-168 -64 -223 -15 -55 -51 -176 -79 -270 -29 -93 -59 -201 -67 -240 -27 -137
-53 -252 -74 -335 -12 -46 -20 -94 -17 -107 2 -12 -1 -25 -7 -28 -7 -3 -7 -7
2 -11 10 -5 10 -8 -2 -18 -16 -12 -59 -143 -51 -156 3 -4 -2 -10 -10 -13 -8
-4 -12 -15 -10 -26 2 -11 0 -23 -5 -26 -12 -7 -10 -75 2 -75 5 0 7 -4 3 -9 -3
-5 -1 -12 5 -16 6 -4 7 -11 4 -17 -5 -7 0 -9 14 -6 15 4 19 2 15 -8 -3 -8 -9
-14 -14 -14 -5 0 -2 -11 7 -25 17 -26 38 -32 50 -14 4 7 0 9 -14 5 -13 -5 -22
-1 -26 10 -4 9 -3 20 0 23 4 3 9 0 11 -7 3 -6 8 -10 12 -7 4 2 23 -12 42 -32
l34 -36 -45 8 c-25 4 -55 8 -68 8 -22 -1 -46 35 -66 101 -5 14 -9 16 -20 7 -7
-6 -16 -8 -19 -4 -4 3 -7 1 -7 -6 0 -8 -7 -11 -15 -7 -8 3 -15 2 -15 -2 0 -4
-8 -8 -17 -9 -30 -1 -86 -12 -120 -22 -17 -5 -55 -6 -85 -3 -46 6 -53 10 -54
29 -1 12 -8 33 -17 47 -9 13 -19 48 -23 77 -9 70 -39 122 -68 116 -11 -2 -136
-37 -276 -77 -417 -118 -501 -141 -585 -162 -44 -10 -97 -23 -117 -29 l-38
-10 0 -59 0 -60 578 0 c542 0 582 2 652 20 75 20 75 20 89 0 13 -20 26 -20
753 -20 589 0 739 3 735 13 -2 6 -12 46 -21 87 -9 41 -27 111 -41 155 -38 130
-48 210 -50 400 -1 99 -3 182 -4 185 -10 22 -9 50 2 50 6 0 4 5 -5 11 -10 5
-18 15 -18 20 0 6 6 7 13 3 6 -4 3 3 -8 16 -12 14 -14 20 -5 15 13 -8 13 -7 0
9 -8 10 -15 23 -16 30 -40 226 -57 417 -59 656 0 25 -4 48 -10 52 -6 4 -2 8 8
8 12 0 17 -8 17 -29 0 -16 6 -31 15 -35 8 -3 15 -1 15 4 0 6 -4 10 -10 10 -5
0 -10 4 -10 10 0 5 8 7 18 4 16 -5 16 -4 -1 9 -10 8 -14 17 -10 18 5 2 -1 24
-14 49 -19 40 -22 42 -22 18 -1 -14 4 -28 11 -30 7 -3 6 -7 -5 -11 -14 -5 -17
0 -18 31 -1 20 -1 41 0 46 3 15 -51 66 -106 103 -83 53 -85 58 -88 250 -2 161
-17 259 -36 247 -5 -3 -9 -41 -9 -86 0 -76 -2 -81 -30 -108 -28 -26 -76 -48
-64 -29 3 5 0 9 -5 9 -6 0 -11 13 -11 29 0 16 -5 31 -11 33 -18 6 27 118 63
155 17 17 29 36 26 43 -2 8 -7 7 -16 -2z m-742 -2123 c-7 -9 -15 -13 -19 -10
-3 3 1 10 9 15 21 14 24 12 10 -5z m25 -75 c-3 -5 -12 -10 -18 -10 -7 0 -6 4
3 10 19 12 23 12 15 0z"/>
<path d="M2400 2050 c0 -18 19 -26 52 -21 3 0 27 -6 52 -13 25 -8 48 -11 51
-6 3 4 -8 10 -23 13 -15 3 -38 15 -51 26 -32 28 -81 28 -81 1z"/>
<path d="M1362 1624 c10 -10 20 -16 22 -13 3 3 -5 11 -17 18 -21 13 -21 12 -5
-5z"/>
<path d="M2610 1631 c0 -5 7 -11 15 -15 8 -3 15 -1 15 3 0 5 -7 11 -15 15 -8
3 -15 1 -15 -3z"/>
<path d="M2935 1620 c-3 -5 -1 -10 4 -10 6 0 11 5 11 10 0 6 -2 10 -4 10 -3 0
-8 -4 -11 -10z"/>
<path d="M1180 1616 c0 -2 7 -7 16 -10 8 -3 12 -2 9 4 -6 10 -25 14 -25 6z"/>
<path d="M2610 1596 c0 -2 7 -6 15 -10 8 -3 15 -1 15 4 0 6 -7 10 -15 10 -8 0
-15 -2 -15 -4z"/>
<path d="M2935 1590 c-3 -5 -1 -10 4 -10 6 0 11 5 11 10 0 6 -2 10 -4 10 -3 0
-8 -4 -11 -10z"/>
<path d="M1190 1581 c0 -9 30 -24 36 -18 2 1 -6 8 -16 15 -11 7 -20 8 -20 3z"/>
<path d="M1385 1580 c3 -5 8 -10 11 -10 2 0 4 5 4 10 0 6 -5 10 -11 10 -5 0
-7 -4 -4 -10z"/>
<path d="M1550 1569 c0 -5 5 -7 10 -4 6 3 10 8 10 11 0 2 -4 4 -10 4 -5 0 -10
-5 -10 -11z"/>
<path d="M1190 1551 c0 -5 7 -11 15 -15 8 -3 15 -1 15 3 0 5 -7 11 -15 15 -8
3 -15 1 -15 -3z"/>
<path d="M1380 1520 c0 -5 5 -10 10 -10 6 0 10 5 10 10 0 6 -4 10 -10 10 -5 0
-10 -4 -10 -10z"/>
<path d="M1204 1505 c11 -8 25 -15 30 -15 6 0 2 7 -8 15 -11 8 -25 15 -30 15
-6 0 -2 -7 8 -15z"/>
<path d="M1320 1490 c0 -5 5 -10 11 -10 5 0 7 5 4 10 -3 6 -8 10 -11 10 -2 0
-4 -4 -4 -10z"/>
<path d="M1380 1490 c0 -5 5 -10 10 -10 6 0 10 5 10 10 0 6 -4 10 -10 10 -5 0
-10 -4 -10 -10z"/>
<path d="M1206 1462 c9 -34 44 -60 44 -32 0 6 -7 10 -15 10 -8 0 -15 5 -15 11
0 6 7 9 15 5 26 -9 16 10 -10 22 -24 11 -25 11 -19 -16z"/>
<path d="M1345 1473 c-3 -10 -1 -19 4 -21 17 -6 13 -22 -6 -23 -12 0 -8 -5 12
-15 l30 -15 -27 4 c-33 5 -37 -9 -7 -18 16 -5 18 -9 9 -15 -7 -4 -9 -13 -6
-19 4 -6 2 -11 -3 -11 -6 0 -11 -4 -11 -10 0 -5 3 -9 8 -9 4 1 14 1 22 0 13
-1 13 -3 1 -10 -8 -5 -21 -7 -30 -5 -9 3 -6 -1 7 -7 30 -16 31 -52 0 -54 -12
-1 -15 5 -12 22 2 13 0 23 -6 23 -6 0 -8 -4 -5 -10 3 -5 1 -10 -5 -10 -6 0 -8
13 -5 33 3 19 2 27 -3 19 -9 -13 -42 -6 -42 9 0 4 7 6 15 3 8 -4 15 -1 15 6 0
6 -3 9 -8 6 -12 -7 -45 22 -37 34 8 13 -11 30 -32 30 -11 0 -7 -23 14 -80 4
-8 5 -20 4 -27 -1 -6 3 -14 9 -18 5 -3 10 -15 10 -26 0 -11 4 -18 9 -15 4 3 6
-6 3 -21 -3 -14 -1 -23 4 -20 5 3 10 -6 11 -19 1 -13 3 -35 4 -49 1 -14 8 -25
16 -25 8 0 12 -4 9 -9 -3 -4 6 -31 19 -60 29 -59 31 -68 10 -47 -8 8 -15 19
-15 24 0 5 -17 13 -37 17 -28 5 -38 3 -45 -9 -5 -9 -13 -14 -17 -11 -5 2 -11
-4 -14 -15 -3 -10 0 -21 7 -24 7 -3 7 -5 -1 -5 -7 -1 -13 -6 -13 -12 0 -5 5
-7 10 -4 6 3 10 1 10 -4 0 -6 -4 -11 -10 -11 -5 0 -10 -5 -10 -10 0 -7 7 -7
21 1 16 8 20 8 17 -1 -2 -7 9 -26 24 -42 15 -17 25 -34 22 -39 -3 -5 1 -9 9
-9 8 0 24 -9 37 -20 13 -11 27 -20 32 -20 15 0 9 -18 -9 -24 -15 -6 -36 11
-28 24 1 3 -4 11 -12 19 -13 12 -14 11 -8 -10 4 -13 10 -31 13 -39 4 -10 0 -9
-14 4 -10 11 -19 23 -19 28 0 5 -6 12 -13 17 -8 5 -13 11 -13 15 3 19 -1 39
-6 29 -6 -17 -24 -17 -21 0 2 6 -3 11 -11 9 -9 -2 -12 4 -8 18 4 17 2 20 -13
15 -12 -4 -17 -1 -16 9 0 8 -2 15 -6 15 -28 3 -38 0 -38 -10 0 -6 7 -9 15 -5
8 3 15 1 15 -4 0 -6 -7 -10 -15 -10 -8 0 -15 -5 -15 -11 0 -6 7 -9 15 -5 9 3
15 0 15 -9 0 -8 5 -15 10 -15 6 0 19 -9 29 -19 20 -20 20 -20 -7 -23 -26 -4
-26 -4 8 -15 24 -8 29 -12 15 -13 -11 -1 3 -8 30 -15 35 -9 43 -14 25 -15
l-25 -2 24 -7 c14 -4 39 -5 57 -3 25 3 34 10 43 35 l11 32 -5 -33 c-3 -24 -1
-31 8 -26 9 5 9 4 0 -7 -7 -7 -13 -23 -13 -36 0 -17 4 -21 18 -17 14 5 14 3
-2 -10 -19 -16 -19 -16 -1 -16 13 0 16 -3 9 -10 -13 -13 -96 -2 -88 11 3 5
-15 9 -40 9 -25 0 -46 -4 -46 -9 0 -5 11 -8 25 -5 16 3 25 0 25 -8 0 -9 3 -8
10 2 6 9 10 10 10 3 0 -6 9 -15 20 -18 11 -4 18 -10 15 -15 -3 -4 5 -11 18
-15 67 -23 65 -20 25 -44 -21 -13 -38 -27 -38 -32 0 -5 -3 -8 -7 -8 -19 4 -73
-27 -73 -41 0 -13 2 -13 11 0 8 11 12 12 16 3 3 -10 12 -10 38 1 18 8 36 12
38 9 3 -2 16 1 29 8 12 7 27 12 32 11 5 -2 5 38 2 90 -4 51 -9 113 -11 138 -1
25 1 50 6 55 16 21 30 107 19 120 -8 9 -7 14 2 18 10 4 10 6 1 6 -7 1 -13 6
-13 12 0 5 5 7 10 4 6 -3 10 -1 10 4 0 6 -6 11 -14 11 -7 0 -16 9 -19 20 -4
15 0 20 16 21 21 1 21 2 2 6 -11 3 -24 10 -30 15 -7 7 -3 9 13 5 12 -3 22 -1
22 4 0 5 -9 9 -20 9 -13 0 -18 5 -14 15 4 9 0 15 -7 15 -11 0 -11 3 1 10 8 5
11 10 5 10 -6 0 -11 34 -13 78 -1 42 -4 86 -6 97 -3 11 -5 52 -5 90 -1 49 -4
66 -11 55 -6 -9 -10 -10 -10 -3 0 6 5 15 10 18 18 11 10 26 -10 20 -15 -5 -18
-3 -14 9 3 9 4 16 1 16 -3 0 -8 -8 -12 -17z m-57 -171 c14 -9 6 -42 -10 -42
-6 0 -6 6 1 14 10 11 8 17 -6 25 -10 6 -13 10 -8 11 6 0 16 -4 23 -8z m26 -68
c23 -9 20 -23 -4 -17 -11 3 -20 9 -20 14 0 11 3 11 24 3z m66 -10 c0 -2 -7 -4
-15 -4 -8 0 -15 4 -15 10 0 5 7 7 15 4 8 -4 15 -8 15 -10z m-60 -34 c0 -5 -2
-10 -4 -10 -3 0 -8 5 -11 10 -3 6 -1 10 4 10 6 0 11 -4 11 -10z m20 -30 c0 -5
-4 -10 -10 -10 -5 0 -10 5 -10 10 0 6 5 10 10 10 6 0 10 -4 10 -10z m0 -30
c13 -8 13 -10 -2 -10 -9 0 -20 5 -23 10 -8 13 5 13 25 0z m60 -150 c0 -21 -15
-27 -25 -10 -7 12 2 30 16 30 5 0 9 -9 9 -20z m-190 -100 c0 -5 -4 -10 -10
-10 -5 0 -10 5 -10 10 0 6 5 10 10 10 6 0 10 -4 10 -10z m177 -22 c-3 -8 -6
-5 -6 6 -1 11 2 17 5 13 3 -3 4 -12 1 -19z m-2 -318 c-3 -5 -10 -10 -16 -10
-5 0 -9 5 -9 10 0 6 7 10 16 10 8 0 12 -4 9 -10z"/>
<path d="M2965 1460 c-3 -5 -1 -10 4 -10 6 0 11 5 11 10 0 6 -2 10 -4 10 -3 0
-8 -4 -11 -10z"/>
<path d="M2965 1430 c-3 -6 1 -7 9 -4 18 7 21 14 7 14 -6 0 -13 -4 -16 -10z"/>
<path d="M2960 1370 c0 -5 5 -10 10 -10 6 0 10 5 10 10 0 6 -4 10 -10 10 -5 0
-10 -4 -10 -10z"/>
<path d="M2744 1330 c0 -11 6 -20 12 -20 7 0 10 8 7 20 -3 11 -8 20 -12 20 -4
0 -7 -9 -7 -20z"/>
<path d="M1430 1319 c0 -5 5 -7 10 -4 6 3 10 8 10 11 0 2 -4 4 -10 4 -5 0 -10
-5 -10 -11z"/>
<path d="M2960 1310 c0 -5 7 -7 15 -4 8 4 15 8 15 10 0 2 -7 4 -15 4 -8 0 -15
-4 -15 -10z"/>
<path d="M1510 1299 c0 -5 5 -7 10 -4 6 3 10 8 10 11 0 2 -4 4 -10 4 -5 0 -10
-5 -10 -11z"/>
<path d="M2978 1293 c-10 -2 -18 -8 -18 -13 0 -4 9 -6 20 -3 11 3 20 9 20 14
0 5 -1 8 -2 8 -2 -1 -11 -3 -20 -6z"/>
<path d="M2960 1250 c0 -5 5 -10 10 -10 6 0 10 5 10 10 0 6 -4 10 -10 10 -5 0
-10 -4 -10 -10z"/>
<path d="M1440 1240 c0 -5 5 -10 11 -10 5 0 7 5 4 10 -3 6 -8 10 -11 10 -2 0
-4 -4 -4 -10z"/>
<path d="M2984 1239 c-18 -9 -21 -20 -22 -97 -1 -48 -4 -102 -5 -119 -2 -18 2
-33 7 -33 7 0 7 -3 0 -8 -7 -4 -15 -40 -19 -79 -8 -87 4 -96 37 -25 12 26 26
49 30 50 5 2 6 8 3 13 -5 7 9 42 83 198 9 19 15 43 15 53 -1 10 2 18 7 18 5 0
7 7 3 16 -4 11 -13 0 -28 -37 -33 -82 -64 -139 -75 -139 -6 0 -10 -7 -10 -15
0 -8 -4 -15 -9 -15 -5 0 -7 9 -4 20 3 11 13 20 22 20 14 0 14 2 1 10 -10 6
-11 10 -2 10 6 0 12 7 12 15 0 8 5 15 11 15 5 0 8 4 4 9 -3 5 0 13 6 17 8 4 7
9 -2 15 -11 7 -11 9 -1 9 7 0 10 5 7 10 -4 6 -11 8 -16 5 -5 -4 -9 -1 -9 4 0
6 -5 11 -10 11 -7 0 -7 -8 1 -22 9 -18 9 -21 -1 -11 -7 6 -18 10 -24 9 -6 -2
-8 -1 -3 1 4 3 7 11 7 18 0 7 6 15 13 18 6 2 9 7 5 11 -3 4 -16 3 -27 -4 -13
-6 -21 -7 -21 -1 0 5 9 13 20 16 11 3 20 11 20 16 0 11 1 11 -26 -2z"/>
<path d="M1447 1170 c3 -11 7 -20 9 -20 2 0 4 9 4 20 0 11 -4 20 -9 20 -5 0
-7 -9 -4 -20z"/>
<path d="M1430 1101 c0 -5 9 -7 20 -4 11 3 20 7 20 9 0 2 -9 4 -20 4 -11 0
-20 -4 -20 -9z"/>
<path d="M1035 1090 c3 -5 8 -10 11 -10 2 0 4 5 4 10 0 6 -5 10 -11 10 -5 0
-7 -4 -4 -10z"/>
<path d="M2724 1079 c-4 -7 0 -9 14 -5 15 5 22 2 25 -11 4 -14 5 -13 6 5 1 16
-5 22 -18 22 -11 0 -23 -5 -27 -11z"/>
<path d="M2780 1061 c0 -5 9 -7 20 -4 11 3 20 7 20 9 0 2 -9 4 -20 4 -11 0
-20 -4 -20 -9z"/>
<path d="M2725 1050 c-3 -5 -1 -10 4 -10 6 0 11 5 11 10 0 6 -2 10 -4 10 -3 0
-8 -4 -11 -10z"/>
<path d="M4000 1024 c0 -18 -37 -29 -372 -107 -204 -48 -374 -89 -376 -92 -3
-2 0 -26 6 -52 6 -26 18 -79 27 -118 9 -38 17 -71 19 -72 1 -1 121 29 266 67
144 39 267 70 272 70 13 0 7 -669 -6 -678 -6 -4 -29 -15 -51 -24 -40 -17 -40
-17 123 -17 134 -1 162 1 162 13 0 8 10 18 23 21 72 20 77 25 77 71 0 24 -1
44 -3 44 -2 0 -25 -7 -51 -16 -26 -9 -48 -15 -49 -13 -1 2 0 152 3 334 l5 329
45 11 45 11 3 117 c1 64 0 117 -3 117 -3 0 -36 -7 -72 -17 -63 -15 -67 -15
-79 2 -14 18 -14 18 -14 -1z"/>
<path d="M2727 1023 c-13 -12 -7 -43 8 -43 8 0 15 5 15 11 0 5 -4 7 -10 4 -5
-3 -10 -1 -10 4 0 6 5 11 10 11 6 0 10 5 10 10 0 11 -13 13 -23 3z"/>
<path d="M1440 1000 c0 -5 5 -10 11 -10 5 0 7 5 4 10 -3 6 -8 10 -11 10 -2 0
-4 -4 -4 -10z"/>
<path d="M2725 960 c-3 -5 3 -10 14 -10 12 0 21 5 21 10 0 6 -6 10 -14 10 -8
0 -18 -4 -21 -10z"/>
<path d="M1150 950 c0 -5 5 -10 10 -10 6 0 10 5 10 10 0 6 -4 10 -10 10 -5 0
-10 -4 -10 -10z"/>
<path d="M2733 933 c-7 -2 -13 -8 -13 -13 0 -10 38 -1 46 11 6 10 -13 11 -33
2z"/>
<path d="M1120 920 c0 -5 5 -10 10 -10 6 0 10 5 10 10 0 6 -4 10 -10 10 -5 0
-10 -4 -10 -10z"/>
<path d="M2733 903 c-25 -9 -13 -22 12 -13 16 6 25 6 25 0 0 -6 -4 -10 -10
-10 -5 0 -10 -4 -10 -9 0 -5 9 -7 20 -4 11 3 17 10 14 15 -4 6 0 14 7 19 15 9
-36 12 -58 2z"/>
<path d="M2743 839 c-25 -9 -30 -19 -10 -19 15 0 43 17 37 23 -3 3 -15 1 -27
-4z"/>
<path d="M2970 835 c-9 -11 -10 -22 -3 -38 10 -21 10 -21 10 7 0 15 7 32 14
37 8 5 9 9 3 9 -6 0 -17 -7 -24 -15z"/>
<path d="M2753 812 c-17 -11 -5 -52 13 -45 15 6 20 25 5 21 -5 -2 -10 2 -11 7
0 6 9 13 22 17 20 5 20 6 3 7 -11 0 -25 -3 -32 -7z"/>
<path d="M3031 781 c-7 -5 -12 -13 -10 -18 2 -6 13 -2 23 8 20 19 12 26 -13
10z"/>
<path d="M2988 763 c7 -3 16 -2 19 1 4 3 -2 6 -13 5 -11 0 -14 -3 -6 -6z"/>
<path d="M2760 751 c-8 -6 -18 -7 -22 -5 -4 3 -8 1 -8 -5 0 -14 34 -10 49 6
14 15 3 17 -19 4z"/>
<path d="M1335 730 c-3 -5 -1 -10 4 -10 6 0 11 5 11 10 0 6 -2 10 -4 10 -3 0
-8 -4 -11 -10z"/>
<path d="M1360 730 c0 -5 5 -10 11 -10 5 0 7 5 4 10 -3 6 -8 10 -11 10 -2 0
-4 -4 -4 -10z"/>
<path d="M3060 730 c-9 -6 -10 -10 -3 -10 6 0 15 5 18 10 8 12 4 12 -15 0z"/>
<path d="M2770 720 c-18 -12 -2 -12 25 0 13 6 15 9 5 9 -8 0 -22 -4 -30 -9z"/>
<path d="M2730 710 c-8 -5 -12 -11 -9 -14 2 -3 11 -1 19 4 8 5 12 11 9 14 -2
3 -11 1 -19 -4z"/>
<path d="M3005 710 c3 -5 12 -7 20 -3 21 7 19 13 -6 13 -11 0 -18 -4 -14 -10z"/>
<path d="M2770 690 c0 -13 11 -13 30 0 12 8 11 10 -7 10 -13 0 -23 -4 -23 -10z"/>
<path d="M2738 683 c-10 -2 -18 -8 -18 -13 0 -4 9 -6 20 -3 11 3 20 9 20 14 0
5 -1 8 -2 8 -2 -1 -11 -3 -20 -6z"/>
<path d="M3060 669 c0 -5 5 -7 10 -4 6 3 10 8 10 11 0 2 -4 4 -10 4 -5 0 -10
-5 -10 -11z"/>
<path d="M2768 663 c-10 -2 -18 -9 -18 -14 0 -10 32 -4 60 12 12 7 11 8 -5 8
-11 -1 -28 -3 -37 -6z"/>
<path d="M3025 660 c3 -5 10 -10 16 -10 5 0 9 5 9 10 0 6 -7 10 -16 10 -8 0
-12 -4 -9 -10z"/>
<path d="M3050 640 c-9 -6 -10 -10 -3 -10 6 0 15 5 18 10 8 12 4 12 -15 0z"/>
<path d="M2785 630 c-3 -5 -2 -10 4 -10 5 0 13 5 16 10 3 6 2 10 -4 10 -5 0
-13 -4 -16 -10z"/>
<path d="M3040 610 c0 -5 5 -10 10 -10 6 0 10 5 10 10 0 6 -4 10 -10 10 -5 0
-10 -4 -10 -10z"/>
<path d="M2790 600 c0 -5 5 -10 10 -10 6 0 10 5 10 10 0 6 -4 10 -10 10 -5 0
-10 -4 -10 -10z"/>
<path d="M2745 580 c-3 -5 -1 -10 4 -10 6 0 11 5 11 10 0 6 -2 10 -4 10 -3 0
-8 -4 -11 -10z"/>
<path d="M2790 570 c-8 -5 -12 -11 -9 -14 3 -3 14 1 25 9 21 16 8 20 -16 5z"/>
<path d="M2750 549 c0 -5 5 -7 10 -4 6 3 10 8 10 11 0 2 -4 4 -10 4 -5 0 -10
-5 -10 -11z"/>
<path d="M2796 540 c-11 -3 -15 -9 -10 -13 10 -6 42 9 34 16 -3 3 -14 1 -24
-3z"/>
<path d="M3066 520 c-11 -3 -15 -9 -10 -13 10 -6 42 9 34 16 -3 3 -14 1 -24
-3z"/>
<path d="M3100 520 c0 -5 5 -10 10 -10 6 0 10 5 10 10 0 6 -4 10 -10 10 -5 0
-10 -4 -10 -10z"/>
<path d="M2805 510 c-16 -7 -17 -9 -3 -9 9 -1 20 4 23 9 7 11 7 11 -20 0z"/>
<path d="M1422 498 c-16 -16 -15 -28 3 -28 8 0 15 9 15 20 0 23 -2 24 -18 8z"/>
<path d="M2810 480 c-24 -15 -7 -19 20 -5 15 8 19 14 10 14 -8 1 -22 -3 -30
-9z"/>
<path d="M1420 430 c-8 -5 -12 -11 -9 -14 2 -3 11 -1 19 4 8 5 12 11 9 14 -2
3 -11 1 -19 -4z"/>
<path d="M1370 410 c-8 -5 -10 -10 -5 -10 6 0 17 5 25 10 8 5 11 10 5 10 -5 0
-17 -5 -25 -10z"/>
<path d="M2818 413 c7 -3 16 -2 19 1 4 3 -2 6 -13 5 -11 0 -14 -3 -6 -6z"/>
<path d="M3070 410 c-13 -8 -12 -10 3 -10 9 0 17 5 17 10 0 12 -1 12 -20 0z"/>
<path d="M3060 380 c0 -5 5 -10 10 -10 6 0 10 5 10 10 0 6 -4 10 -10 10 -5 0
-10 -4 -10 -10z"/>
<path d="M3068 320 c-2 -24 3 -60 13 -85 16 -41 16 -44 -2 -48 -20 -5 -27 -27
-9 -27 6 0 10 -13 10 -28 0 -15 5 -33 11 -39 7 -7 6 -21 -5 -48 -14 -32 -18
-35 -31 -25 -12 10 -15 9 -15 -4 0 -13 7 -17 32 -14 28 3 36 10 54 48 12 25
19 51 17 57 -3 9 4 13 21 13 19 0 41 -15 77 -52 l49 -51 35 39 c31 35 34 44
31 86 -3 51 -30 102 -49 95 -7 -2 -18 -14 -24 -28 -7 -13 -13 -18 -13 -11 0 7
5 22 10 33 13 23 2 24 -36 4 -43 -22 -81 -19 -89 6 -10 30 4 39 69 48 53 7 75
16 65 25 -3 3 -22 1 -44 -4 -22 -4 -59 -11 -83 -14 -24 -3 -47 -8 -52 -11 -11
-7 -23 13 -26 43 -5 40 -12 36 -16 -8z m277 -220 c-3 -5 -12 -10 -18 -10 -7 0
-6 4 3 10 19 12 23 12 15 0z"/>
<path d="M1355 340 c-3 -5 -1 -10 4 -10 6 0 11 5 11 10 0 6 -2 10 -4 10 -3 0
-8 -4 -11 -10z"/>
<path d="M1228 333 c-10 -2 -18 -11 -18 -18 0 -8 -9 -17 -20 -20 -11 -3 -20
-13 -20 -21 0 -8 -5 -14 -11 -14 -5 0 -7 -4 -4 -10 3 -5 -3 -10 -13 -10 -11 0
-22 -7 -26 -15 -3 -9 0 -15 8 -15 8 0 17 6 19 13 4 9 6 9 6 -1 1 -10 4 -10 15
0 8 7 11 18 8 23 -3 6 3 3 13 -5 17 -14 18 -13 12 3 -3 9 -2 17 3 17 6 0 10
-4 10 -10 0 -5 5 -10 10 -10 7 0 7 7 -1 21 -12 23 -1 37 31 40 8 0 4 5 -10 9
-17 5 -19 8 -7 9 9 1 17 6 17 11 0 6 -1 9 -2 9 -2 -1 -11 -3 -20 -6z"/>
<path d="M1420 329 c0 -5 5 -7 10 -4 6 3 10 8 10 11 0 2 -4 4 -10 4 -5 0 -10
-5 -10 -11z"/>
<path d="M2838 323 c7 -3 16 -2 19 1 4 3 -2 6 -13 5 -11 0 -14 -3 -6 -6z"/>
<path d="M1236 280 c-11 -3 -15 -9 -10 -12 5 -3 18 -2 28 2 11 3 15 9 10 12
-5 3 -18 2 -28 -2z"/>
<path d="M2830 260 c-18 -12 -2 -12 25 0 13 6 15 9 5 9 -8 0 -22 -4 -30 -9z"/>
<path d="M2800 231 c0 -5 5 -13 10 -16 6 -3 10 -2 10 4 0 5 -4 13 -10 16 -5 3
-10 2 -10 -4z"/>
<path d="M2830 228 c0 -10 9 -9 35 2 17 8 16 8 -7 7 -16 -1 -28 -5 -28 -9z"/>
<path d="M2822 190 c-22 -21 -30 -36 -13 -26 5 4 11 3 14 -1 2 -5 2 -2 1 4 -2
7 4 17 14 22 9 5 14 12 11 15 -3 3 -15 -3 -27 -14z"/>
<path d="M2858 133 c7 -3 16 -2 19 1 4 3 -2 6 -13 5 -11 0 -14 -3 -6 -6z"/>
<path d="M2830 100 c0 -12 8 -12 35 0 18 8 17 9 -7 9 -16 1 -28 -3 -28 -9z"/>
<path d="M2835 70 c-3 -5 -1 -10 4 -10 6 0 11 5 11 10 0 6 -2 10 -4 10 -3 0
-8 -4 -11 -10z"/>
<path d="M2860 70 c0 -5 7 -7 15 -4 8 4 15 8 15 10 0 2 -7 4 -15 4 -8 0 -15
-4 -15 -10z"/>
<path d="M2840 40 c0 -5 9 -9 20 -7 31 5 36 17 7 17 -15 0 -27 -4 -27 -10z"/>
<path d="M2850 8 c0 -9 36 -5 46 5 4 4 -5 6 -19 5 -15 -1 -27 -6 -27 -10z"/>
</g>
</svg>
