<?xml version="1.0" standalone="no"?>
<!DOCTYPE svg PUBLIC "-//W3C//DTD SVG 20010904//EN"
 "http://www.w3.org/TR/2001/REC-SVG-20010904/DTD/svg10.dtd">
<svg version="1.0" xmlns="http://www.w3.org/2000/svg"
 width="707.000000pt" height="705.000000pt" viewBox="0 0 707.000000 705.000000"
 preserveAspectRatio="xMidYMid meet">

<g transform="translate(0.000000,705.000000) scale(0.100000,-0.100000)"
fill="#000000" stroke="none">
<path d="M2918 6893 l-3 -158 -215 -5 -215 -5 -3 -432 c-1 -238 -3 -434 -5
-435 -1 -1 -198 -5 -437 -8 l-435 -5 0 -210 0 -210 1960 0 1960 0 3 213 2 212
-644 0 c-354 0 -651 3 -660 6 -14 5 -16 34 -16 220 l0 214 -204 0 c-112 0
-211 3 -220 6 -14 5 -16 34 -16 220 l0 214 -198 0 c-141 0 -201 3 -210 12 -8
8 -12 58 -12 160 l0 148 -215 0 -214 0 -3 -157z"/>
<path d="M1165 5397 c-3 -7 -4 -102 -3 -212 l3 -200 212 -3 213 -2 5 22 c3 13
4 109 3 213 l-3 190 -213 3 c-167 2 -214 0 -217 -11z"/>
<path d="M5542 5198 l3 -213 210 0 210 0 3 213 2 212 -215 0 -215 0 2 -212z"/>
<path d="M725 4957 c-3 -6 -4 -201 -3 -432 l3 -420 210 0 210 0 9 417 c4 230
6 425 2 433 -4 13 -37 15 -216 15 -159 0 -212 -3 -215 -13z"/>
<path d="M5982 4538 l3 -433 210 0 210 0 3 433 2 432 -215 0 -215 0 2 -432z"/>
<path d="M285 4078 c-3 -7 -4 -598 -3 -1313 l3 -1300 212 -3 213 -2 5 22 c3
13 4 604 3 1313 l-3 1290 -213 3 c-164 2 -214 0 -217 -10z"/>
<path d="M6420 2775 l0 -1315 213 2 212 3 3 1313 2 1312 -215 0 -215 0 0
-1315z"/>
<path d="M2049 3646 c-5 -6 -9 -100 -9 -218 0 -114 -1 -209 -2 -210 -2 -1
-100 -4 -218 -7 l-215 -6 0 -210 0 -210 424 -3 c234 -1 429 2 433 6 9 9 12
851 4 860 -9 9 -407 7 -417 -2z"/>
<path d="M5110 3652 c-6 -2 -10 -82 -10 -211 0 -148 -3 -210 -12 -219 -9 -9
-72 -12 -220 -12 l-208 0 2 -212 3 -213 430 0 430 0 3 424 c1 242 -2 429 -7
434 -8 8 -388 16 -411 9z"/>
<path d="M724 1447 c-2 -7 -3 -105 -2 -217 l3 -205 209 -3 c161 -2 211 1 218
10 13 22 10 402 -4 416 -18 18 -417 17 -424 -1z"/>
<path d="M3367 1454 c-4 -4 -7 -103 -7 -221 l0 -213 -1097 -2 -1098 -3 -3
-204 c-2 -138 1 -208 9 -217 9 -11 419 -13 2392 -13 1310 0 2388 3 2395 8 9 6
12 57 10 217 l-3 209 -1097 3 -1098 2 -2 218 -3 217 -196 3 c-107 1 -198 -1
-202 -4z"/>
<path d="M5992 1452 c-9 -7 -12 -57 -10 -218 l3 -209 210 0 210 0 0 215 0 215
-200 2 c-110 2 -206 -1 -213 -5z"/>
</g>
</svg>
