<?xml version="1.0" encoding="utf-8"?>
<!-- Generator: Adobe Illustrator 19.2.1, SVG Export Plug-In . SVG Version: 6.00 Build 0)  -->
<svg version="1.1" id="layer" xmlns="http://www.w3.org/2000/svg" xmlns:xlink="http://www.w3.org/1999/xlink" x="0px" y="0px"
	 viewBox="0 0 652 652" style="enable-background:new 0 0 652 652;" xml:space="preserve">
<style type="text/css">
	.st0{fill:#4D9D37;}
</style>
<g>
	<g>
		<g>
			<g>
				<g>
					<path class="st0" d="M75.9,427.2l29.5-36.3h24.8L118,478.3H94.8l7.4-55.3l-31.1,36.9L50.6,423l-6.8,55.3H20.5l12.1-87.4h24.8
						L75.9,427.2z"/>
					<path class="st0" d="M196.5,390.9l27.9,87.4h-23.7l-5.3-17.4h-40l-9,17.4h-23.7l47.9-87.4H196.5z M190.2,443.6l-9-31.6
						l-16.3,31.6H190.2z"/>
					<path class="st0" d="M241.3,390.9h45.3c9.5,0,16.9,2.6,21.6,7.9c4.7,5.3,6.8,13.2,5.8,20c-1.1,7.4-4.7,15.3-11.1,20.5
						c-6.3,5.3-14.2,7.9-23.7,7.9h-22.1l-4.2,31.6h-23.2L241.3,390.9z M262.3,408.8l-2.6,20.5h14.2c9.5,0,15.3-3.2,15.8-10
						c0.5-3.7-0.5-6.3-2.6-7.9c-2.6-1.6-6.8-2.1-13.2-2.1L262.3,408.8L262.3,408.8z"/>
					<path class="st0" d="M474.6,460.4l-2.6,17.9h-71.1l12.1-87.4h71.6l-2.6,17.9h-47.9l-2.1,17.4h44.2l-2.6,17.4h-44.2l-2.6,17.4
						h47.9V460.4z"/>
					<path class="st0" d="M311.3,390.9c5.3,2.1,10.5,10.5,11.1,17.9h24.2l-9.5,69.5h23.2l9.5-69.5h32.1l2.6-17.9H311.3L311.3,390.9z
						"/>
				</g>
				<path class="st0" d="M505.2,478.3H482l12.1-87.4h23.2L505.2,478.3z"/>
				<path class="st0" d="M585.3,390.9c-16.9,29-41.6,43.7-41.6,43.7l32.7,43.7h-29.5L512,432c0,0,29.5-19,44.2-41.1L585.3,390.9
					L585.3,390.9z"/>
			</g>
		</g>
		<path class="st0" d="M517.3,202.8c4.2,5.8,6.8,13.2,8.4,20.5c3.7-1.6,7.9-3.7,12.6-5.3c5.3-1.6,9-2.6,12.1-3.2
			c-2.1-9.5-5.3-19-10.5-26.9c-11.6-17.4-27.9-25.8-50-25.8c-30.6,0-70.1,24.2-111.7,69C339.8,272.3,301.8,327.7,275,384
			c0,0,7.4,0,14.2,0c8.4,0,14.2,2.6,14.2,2.6l1.6-2.6c26.3-50.6,60.1-99,94.8-135.9c35.3-37.9,67.4-58.5,89.6-58.5
			C502.6,189.1,511.5,193.9,517.3,202.8z"/>
		<path class="st0" d="M599,240.7c-8.4-13.2-22.1-20-38.5-20c-1.1,0-11.1,0.5-23.2,4.7c-4.7,1.6-9.5,3.7-13.2,5.8
			c-42.1,22.7-82.7,71.6-95.3,94.8c-13.7,25.3-15.3,37.9-4.7,47.9c5.3,5.3,14.7,7.4,27.9,7.4c17.4,0,38.5-4.7,48.5-8.4
			c12.6-4.7,21.6-11.1,30-20c17.9-20,25.3-52.7,24.2-98.5c-3.7,0.5-7.9,2.1-13.2,4.7c-5.8,3.2-10,5.8-12.6,7.9
			c0,33.7-7.4,71.1-35.8,82.7c-3.2,1.1-19.5,7.4-30.6,7.4c-5.8,0-11.1-1.1-12.6-4.7c-2.6-4.7,1.1-12.6,8.4-23.7
			c17.9-25.3,34.2-43.2,51.6-57.9c3.2-2.6,6.3-5.3,9.5-7.4c1.6-1.1,12.1-9,22.1-13.2c5.8-2.6,11.6-4.2,17.9-4.2
			c4.2,0,6.8,1.1,6.8,1.1c3.7,1.1,6.8,3.7,9,7.4c5.8,9,9.5,30.6,6.8,55.8c-2.6,26.9-12.1,52.7-22.7,71.6h29
			c11.1-21.6,19.5-50,21.6-79C611.6,276.6,606.3,252.9,599,240.7z"/>
		<path class="st0" d="M599,392.5h-4.2l0.5-1.6h10.5l-0.5,1.6h-4.2l-2.1,10h-1.6L599,392.5z"/>
		<path class="st0" d="M618.4,390.9h2.1l-2.6,11.6h-1.6l2.1-9.5l0,0l-6.3,9.5h-1.6l-2.6-9.5l0,0l-2.1,9.5h-1.6l2.6-11.6h2.6l2.6,9.5
			L618.4,390.9z"/>
	</g>
</g>
</svg>
